<svg width="530" height="319" viewBox="0 0 530 319" fill="none" xmlns="http://www.w3.org/2000/svg">
<path d="M182.625 61.3134C180.805 55.9634 177.695 51.0734 173.405 47.3634C171.595 45.7434 169.565 44.3934 167.415 43.2634C165.735 42.7834 163.975 40.8134 165.725 39.3334C167.425 38.2734 169.465 40.0234 171.075 40.6634C175.655 43.1734 179.495 46.9034 182.385 51.2334C183.995 53.6634 186.975 58.4334 186.525 61.3134C185.895 62.9934 183.235 63.0234 182.615 61.3134H182.625Z" fill="black"/>
<path d="M194.504 70.8435C193.494 69.7635 194.044 68.1235 193.694 66.7935C193.364 63.7735 192.934 60.7635 192.124 57.8235C191.374 53.6535 188.904 50.0835 187.794 46.0635C187.384 43.8635 190.544 42.6535 191.354 44.9035C193.384 48.6535 195.294 52.5035 196.174 56.7035C197.144 60.8635 197.804 65.1035 198.084 69.3635C198.164 71.1635 195.734 72.1635 194.514 70.8435H194.504Z" fill="black"/>
<path d="M325.663 213.61C331.345 213.58 328.724 213.45 334.406 213.42C340.489 213.39 346.573 213.49 352.656 213.67C355.406 213.76 358.156 213.86 360.906 213.93C363.876 214.01 366.846 214.04 369.817 214.02C375.381 213.99 380.933 213.76 386.498 213.6C391.764 213.44 397.043 213.38 402.309 213.4C407.796 213.42 413.296 213.54 418.782 213.61C424.308 213.68 429.847 213.57 435.372 213.51C438.447 213.47 441.521 213.46 444.582 213.47C447.656 213.48 450.743 213.54 453.817 213.58C455.841 213.61 457.851 213.62 459.875 213.66C460.16 213.66 460.446 213.67 460.731 213.68C460.809 213.67 460.9 213.66 460.977 213.65C461.276 213.62 461.574 213.62 461.859 213.63C462.56 213.66 463.157 213.8 463.727 214.12C464.869 214.74 465.102 216.04 464.415 216.94C464.22 217.19 463.974 217.39 463.701 217.56C463.662 217.58 463.623 217.6 463.585 217.62C463.338 217.75 463.079 217.84 462.793 217.9C462.197 218.04 461.561 218.06 460.926 218.01C460.861 218.01 460.796 218 460.731 217.99C460.575 217.99 460.433 217.99 460.277 217.99C458.513 218.01 456.762 218.03 454.998 218.05C449.303 218.12 443.609 218.19 437.915 218.14C432.467 218.09 427.006 217.98 421.558 217.98C415.955 217.98 410.364 218.16 404.761 218.19C399.546 218.22 394.332 218.16 389.105 218.04C383.54 217.92 377.976 217.7 372.411 217.57C366.717 217.44 361.009 217.6 355.315 217.79C349.361 217.99 343.408 218.1 337.441 218.12C331.552 218.14 325.676 218.02 319.8 217.94" fill="#8230FF"/>
<path d="M282 217.65C276.765 217.47 271.53 217.43 266.308 217.54C263.203 217.6 260.099 217.71 256.995 217.8C253.851 217.89 250.72 217.94 247.577 217.99C241.934 218.09 236.291 218.15 230.648 218.1C227.991 218.08 225.334 218.02 222.677 217.98C219.954 217.93 217.244 217.91 214.521 217.85C208.76 217.72 203.012 217.47 197.25 217.45C191.239 217.42 185.228 217.67 179.217 217.88C174.231 218.05 169.246 218.2 164.261 218.2C163.13 218.2 162.011 218.2 160.88 218.18C154.895 218.09 148.924 217.82 142.925 217.82C137.585 217.82 132.258 218.04 126.917 218.12C120.932 218.2 114.947 218.08 108.962 217.87C103.346 217.67 97.7159 217.54 92.0993 217.56C86.1275 217.58 80.1557 217.78 74.1707 217.8C72.4871 217.8 70.8034 217.8 69.1197 217.8C67.3966 217.8 65.6866 217.8 63.9634 217.8C60.333 217.82 56.7026 217.85 53.059 217.87C49.9941 217.88 46.9293 217.87 43.8645 217.83C42.6412 217.81 41.431 217.8 40.2077 217.74C39.6553 217.71 39.1028 217.69 38.5898 217.52C37.0377 216.99 36.4852 215.46 37.5507 214.43C37.8401 214.16 38.2084 213.94 38.6293 213.81C39.0239 213.68 39.458 213.64 39.8789 213.62C40.8786 213.56 41.8914 213.55 42.8911 213.53C45.7718 213.48 48.6525 213.48 51.5331 213.48C57.9785 213.48 64.4107 213.6 70.856 213.57C77.0251 213.54 83.1942 213.73 89.3633 213.8C94.8747 213.86 100.386 213.83 105.884 213.63C112.04 213.41 118.196 213.23 124.352 213.26C129.469 213.29 134.599 213.47 139.716 213.56C142.873 213.62 146.03 213.59 149.187 213.53C152.212 213.47 155.25 213.36 158.276 213.3C161.17 213.24 164.05 213.21 166.944 213.24C170.114 213.27 173.271 213.37 176.428 213.47C179.296 213.56 182.163 213.67 185.017 213.78C188.201 213.9 191.397 213.97 194.58 214.01C197.29 214.04 199.986 214 202.696 213.95C205.827 213.9 208.957 213.76 212.101 213.68C214.521 213.62 216.942 213.59 219.362 213.56C222.256 213.51 225.136 213.46 228.03 213.42C233.634 213.34 239.237 213.37 244.841 213.46C247.642 213.51 250.444 213.57 253.246 213.62C256.574 213.68 259.915 213.8 263.243 213.9C266.018 213.98 268.807 214.04 271.582 214.04C274.252 214.04 278.685 214 281.355 213.94" fill="#8230FF"/>
<path d="M287.829 253.98C290.225 253.9 292.61 253.8 295.006 253.74C297.912 253.66 300.806 253.65 303.713 253.65C309.549 253.65 315.373 253.93 321.209 253.88C326.773 253.84 332.336 253.67 337.911 253.63C343.475 253.58 349.038 253.67 354.601 253.81C357.353 253.88 360.105 253.99 362.857 254.06C365.882 254.13 368.895 254.14 371.92 254.1C374.672 254.06 377.412 253.96 380.153 253.86C383.118 253.75 386.084 253.65 389.061 253.56C394.352 253.41 399.642 253.36 404.933 253.42C410.199 253.48 415.466 253.6 420.745 253.54C423.094 253.51 425.43 253.46 427.779 253.42C429.582 253.39 431.385 253.39 433.176 253.36C435.157 253.32 437.15 253.32 439.143 253.32C440.389 253.32 441.622 253.32 442.868 253.32C444.078 253.32 445.3 253.38 446.51 253.38C448.645 253.38 450.768 253.49 452.903 253.51C453.235 253.49 453.579 253.47 453.912 253.47C454.149 253.47 454.386 253.47 454.635 253.47C454.932 253.47 455.205 253.5 455.477 253.57C455.62 253.6 455.762 253.65 455.904 253.7C455.952 253.72 456.011 253.74 456.059 253.76C456.414 253.93 456.711 254.18 456.936 254.49C457.589 255.42 457.233 256.77 456.059 257.3C455.596 257.51 455.157 257.58 454.647 257.6C454.41 257.6 454.173 257.6 453.923 257.61C453.568 257.61 453.2 257.6 452.844 257.58C450.732 257.62 448.621 257.72 446.521 257.76C445.311 257.78 444.09 257.83 442.88 257.85C441.433 257.87 439.985 257.85 438.55 257.87C436.688 257.89 434.825 257.89 432.951 257.87C431.231 257.85 429.511 257.87 427.791 257.85C425.276 257.83 422.75 257.79 420.235 257.78C414.956 257.76 409.677 257.94 404.399 258.03C399.085 258.13 393.77 258.09 388.456 257.98C382.75 257.86 377.045 257.61 371.339 257.57C368.516 257.55 365.693 257.59 362.881 257.68C359.904 257.78 356.915 257.92 353.937 258.01C348.397 258.19 342.858 258.29 337.306 258.29C331.695 258.29 326.097 258.16 320.486 258.16C317.734 258.16 314.994 258.25 312.242 258.33C309.181 258.42 306.132 258.5 303.072 258.53C300.391 258.55 297.71 258.55 295.029 258.5C292.444 258.45 289.858 258.37 287.26 258.3" fill="#8230FF"/>
<path d="M247.392 258.72C241.916 258.79 236.454 258.73 230.992 258.67C225.349 258.6 219.705 258.55 214.062 258.39C211.175 258.31 208.289 258.25 205.389 258.24C202.244 258.22 199.086 258.28 195.94 258.37C189.935 258.53 183.929 258.86 177.923 259.02C171.762 259.19 165.613 259.12 159.452 258.97C156.462 258.9 153.485 258.82 150.508 258.82C147.337 258.82 144.153 258.9 140.981 258.98C134.989 259.13 129.009 259.24 123.016 259.13C117.385 259.02 111.755 258.78 106.124 258.71C100.455 258.64 94.7984 258.76 89.129 258.91C85.919 259 82.709 259.05 79.4989 259.06C76.2889 259.06 73.0918 259.08 69.8817 259.12C65.1185 259.18 60.3422 259.23 55.566 259.23C55.333 259.23 55.113 259.23 54.88 259.23C52.9384 259.23 51.0098 259.2 49.0683 259.09C48.0069 259.03 46.9067 258.8 46.3501 258.01C46.2336 257.86 46.143 257.7 46.0912 257.53C45.8971 257 46.0265 256.47 46.3501 255.99C46.842 255.28 47.8257 255 48.7965 254.92C49.4695 254.86 50.1685 254.85 50.8416 254.82C52.1748 254.76 53.5209 254.74 54.8541 254.73C59.8504 254.67 64.8596 254.71 69.8559 254.73C72.82 254.74 75.7841 254.75 78.7482 254.73C82.2041 254.71 85.6472 254.74 89.0902 254.81C94.9666 254.91 100.856 254.99 106.732 254.88C112.389 254.77 118.032 254.49 123.676 254.34C129.669 254.18 135.675 254.28 141.667 254.4C144.606 254.46 147.531 254.5 150.469 254.48C153.731 254.46 156.993 254.34 160.268 254.24C163.115 254.15 165.963 254.08 168.823 254.04C172.124 254 175.412 254.04 178.699 254.1C184.666 254.23 190.634 254.51 196.613 254.63C202.684 254.75 208.755 254.66 214.825 254.44C220.417 254.24 226.022 254.16 231.613 254.06C237.076 253.96 242.538 253.88 248 253.91" fill="#8230FF"/>
<path d="M139.192 298.351C134.938 298.221 130.684 298.081 126.431 298.021C124.053 297.991 121.69 297.961 119.312 297.961C118.233 297.961 117.155 297.961 116.062 297.971C114.94 297.971 113.832 297.981 112.724 297.981C110.849 297.981 108.958 297.951 107.082 297.971C104.867 297.991 102.651 298.021 100.436 298.051C97.9251 298.091 95.429 298.081 92.9182 298.081C91.8991 298.081 90.8947 298.081 89.8756 298.081C86.2423 298.081 82.6089 298.111 78.9904 298.151C75.357 298.181 71.7089 298.151 68.0755 298.121C65.0625 298.101 62.0495 298.121 59.0512 297.971C58.4309 297.941 57.8254 297.871 57.2198 297.821C57.0573 297.821 56.9096 297.821 56.7472 297.821C56.2155 297.811 55.7724 297.731 55.2997 297.561C54.4874 297.281 54 296.601 54 296.001C54 295.391 54.5169 294.741 55.3293 294.451C55.7871 294.291 56.2155 294.221 56.7176 294.211C56.8653 294.211 57.0278 294.211 57.1755 294.211C57.5447 294.181 57.8992 294.131 58.2684 294.101C59.0808 294.031 59.9079 294.021 60.7202 293.991C63.0243 293.921 65.3284 293.921 67.6177 293.911C72.6985 293.871 77.7645 293.871 82.8305 293.901C85.5038 293.921 88.1623 293.931 90.8357 293.931C93.4499 293.931 96.0494 293.901 98.6636 293.931C102.858 293.971 107.053 294.061 111.247 294.021C113.33 294.001 115.412 294.001 117.495 294.011C119.74 294.011 121.97 294.021 124.215 294.001C128.558 293.951 132.9 293.831 137.242 293.691C142.249 293.531 147.241 293.431 152.248 293.411C156.635 293.401 161.021 293.471 165.408 293.531C169.219 293.591 173.014 293.671 176.81 293.731C179.07 293.771 181.344 293.851 183.604 293.811C185.834 293.771 188.065 293.681 189.822 293.621C191.964 293.531 194.091 293.501 196.232 293.491C198.684 293.471 201.151 293.461 203.602 293.561C205.109 293.621 206.615 293.631 208.107 293.651C209.304 293.671 210.485 293.711 211.681 293.741C212.937 293.781 214.178 293.811 215.005 293.851L215.64 293.881C215.861 293.881 216.083 293.901 216.304 293.911C216.925 293.941 217.56 293.941 218.018 293.961C218.121 293.961 218.224 293.961 218.298 293.971C218.52 293.971 218.756 293.991 218.978 294.001C219.76 294.031 220.543 294.021 220.942 294.041C221.666 294.061 222.389 294.101 223.113 294.081C223.423 294.081 223.734 294.081 224.044 294.101C224.354 294.111 224.664 294.121 224.989 294.121C225.033 294.121 225.078 294.121 225.122 294.121C225.624 294.101 226.097 294.101 226.54 294.121C226.569 294.121 226.584 294.121 226.614 294.121C226.953 294.101 227.293 294.101 227.633 294.091C228.135 294.061 228.622 294.001 229.139 294.021C229.789 294.051 230.38 294.161 230.897 294.441C231.488 294.751 231.872 295.221 231.975 295.721C232.078 296.231 231.857 296.761 231.384 297.171C230.941 297.551 230.217 297.871 229.494 297.901C229.036 297.921 228.622 297.931 228.179 297.901C228.002 297.891 227.825 297.871 227.662 297.851C227.323 297.851 226.983 297.841 226.643 297.821H226.628C226.111 297.841 225.624 297.841 225.27 297.821C224.856 297.821 224.442 297.821 224.177 297.821C223.453 297.841 222.729 297.841 222.005 297.851C221.991 297.851 221.976 297.851 221.961 297.851C221.828 297.851 221.695 297.861 221.577 297.861C221.356 297.861 221.149 297.881 221.001 297.881C220.588 297.891 220.189 297.881 220.026 297.881C219.879 297.881 219.731 297.891 219.583 297.901C219.421 297.901 219.244 297.921 219.244 297.921C218.948 297.941 218.638 297.951 218.343 297.971C217.752 298.001 217.146 298.011 216.541 298.021C216.171 298.041 215.787 298.051 215.625 298.061C215.256 298.081 214.872 298.101 214.502 298.111C213.867 298.141 213.232 298.161 212.686 298.171C210.854 298.241 209.038 298.271 207.206 298.311C206.054 298.331 204.902 298.341 204.045 298.371C200.383 298.521 196.72 298.481 193.057 298.421C190.915 298.391 188.788 298.281 186.647 298.231C185.702 298.211 184.771 298.181 183.826 298.151C182.511 298.121 181.197 298.131 179.882 298.151C171.375 298.301 162.868 298.531 154.36 298.561C153.932 298.561 153.504 298.561 153.09 298.561C148.482 298.561 143.859 298.491 139.251 298.351H139.192Z" fill="#8230FF"/>
<path fill-rule="evenodd" clip-rule="evenodd" d="M426.329 103.402C426.223 103.467 426.124 103.546 426.044 103.641C425.835 103.889 425.628 104.137 425.42 104.385L425.42 104.386L425.42 104.386L425.419 104.386L425.419 104.387L425.419 104.387L425.418 104.387L425.418 104.388L425.418 104.388C425.186 104.666 424.953 104.943 424.72 105.22C423.76 106.35 422.77 107.46 421.77 108.56C419.99 110.53 418.18 112.46 416.35 114.38C415.725 115.039 415.104 115.703 414.484 116.365L414.479 116.371L414.475 116.375L414.474 116.376L414.473 116.377C414.175 116.696 413.878 117.013 413.58 117.33C412.42 118.56 411.24 119.77 410.05 120.98C407.7 123.38 405.38 125.82 403.15 128.33C401.5 130.22 399.89 132.13 398.31 134.07L397.655 134.875C396.245 136.606 394.838 138.334 393.4 140.04L392.554 141.038C389.717 144.386 386.879 147.735 383.95 151.01C381.563 153.679 379.114 156.301 376.665 158.921L376.664 158.922C375.728 159.924 374.792 160.926 373.86 161.93C372.61 163.27 371.336 164.591 370.064 165.91L370.062 165.912L370.06 165.914C369.492 166.503 368.925 167.091 368.36 167.68C366.62 169.49 364.92 171.33 363.25 173.2C360.83 175.98 358.48 178.82 356.16 181.69C355.833 182.093 355.506 182.496 355.179 182.899C353.218 185.317 351.256 187.736 349.25 190.11C346.89 192.91 344.41 195.61 341.88 198.27C341.359 198.818 340.837 199.364 340.315 199.911C338.311 202.008 336.308 204.104 334.38 206.27C332.959 207.898 331.564 209.548 330.169 211.197L330.167 211.199C329.413 212.09 328.658 212.982 327.9 213.87C325.64 216.52 323.35 219.13 320.98 221.69C319.474 223.316 317.929 224.902 316.384 226.486L316.384 226.486C315.61 227.28 314.838 228.073 314.07 228.87C311.85 231.18 309.66 233.52 307.53 235.91C305.751 237.935 304.015 239.995 302.28 242.055L302.275 242.061L302.27 242.067L302.265 242.073L302.259 242.079L302.254 242.086L302.249 242.092L302.244 242.098C301.943 242.455 301.642 242.813 301.34 243.17C300.34 244.36 299.33 245.54 298.31 246.72C297.553 247.596 296.774 248.46 295.997 249.321C295.603 249.757 295.21 250.193 294.82 250.63C294.565 250.915 294.31 251.203 294.055 251.49C293.8 251.778 293.545 252.065 293.29 252.35C293.17 252.49 293.048 252.628 292.925 252.765C292.803 252.903 292.68 253.04 292.56 253.18C292.535 253.21 292.508 253.24 292.48 253.27L292.454 253.299L292.433 253.322L292.419 253.338L292.408 253.35L292.4 253.36C292.197 253.637 291.943 253.888 291.866 253.965L291.85 253.98C291.581 254.285 291.314 254.589 291.046 254.894L291.045 254.895L291.044 254.896C290.777 255.201 290.51 255.505 290.24 255.81C289.887 256.211 289.534 256.612 289.181 257.013L289.181 257.014C286.875 259.634 284.569 262.255 282.21 264.83C281.18 265.95 280.14 267.05 279.07 268.14C278.784 268.431 278.46 268.713 278.105 268.925C278.04 268.964 277.977 269.008 277.92 269.057C277.789 269.169 277.652 269.275 277.518 269.378L277.45 269.43C276.526 270.15 275.523 270.798 274.532 271.439L274.445 271.496L274.16 271.68C272.619 272.67 271.062 273.644 269.506 274.617C268.579 275.197 267.653 275.777 266.73 276.36C264.03 278.07 261.33 279.79 258.63 281.51C258.096 281.851 257.563 282.195 257.031 282.539L257.03 282.54L257.028 282.541L257.028 282.541C256.296 283.014 255.565 283.487 254.83 283.95C253.37 284.87 251.89 285.77 250.42 286.66C247.94 288.16 245.47 289.67 243.01 291.2C240.76 292.6 238.58 294.08 236.4 295.58C236.14 295.76 235.88 295.94 235.61 296.12C235.565 296.15 235.52 296.182 235.475 296.215C235.43 296.247 235.385 296.28 235.34 296.31C235.094 296.484 234.85 296.66 234.606 296.837L234.606 296.837L234.605 296.838L234.605 296.838L234.604 296.838L234.603 296.839L234.602 296.84L234.601 296.841L234.601 296.841C234.2 297.131 233.799 297.421 233.39 297.7L233.18 297.85L233.18 297.85C233.171 297.857 233.161 297.864 233.152 297.871C233.086 297.92 233.021 297.97 232.961 298.025C232.857 298.119 232.746 298.202 232.63 298.28C232.28 298.52 231.84 298.65 231.41 298.65C231.232 298.65 231.045 298.631 230.877 298.572C230.873 298.571 230.868 298.572 230.865 298.575C230.862 298.578 230.858 298.579 230.853 298.578C230.709 298.539 230.571 298.484 230.441 298.417C230.405 298.398 230.368 298.381 230.33 298.366C230.156 298.296 229.987 298.2 229.829 298.077C229.824 298.073 229.816 298.072 229.81 298.075C229.804 298.078 229.797 298.077 229.791 298.073C229.376 297.743 229.1 297.246 229.03 296.72C229.01 296.53 229.01 296.34 229.03 296.16L229.039 296.117C229.056 296.029 229.074 295.936 229.1 295.85C229.152 295.642 229.234 295.449 229.346 295.278C229.381 295.225 229.414 295.171 229.441 295.114C229.463 295.068 229.484 295.023 229.504 294.98L229.505 294.978C229.57 294.84 229.623 294.727 229.65 294.68C229.696 294.591 229.74 294.501 229.783 294.411C229.852 294.268 229.92 294.125 230 293.99L230.21 293.51C230.365 293.18 230.525 292.852 230.685 292.525C230.845 292.197 231.005 291.87 231.16 291.54C231.73 290.33 232.29 289.12 232.84 287.91C233.85 285.69 234.82 283.46 235.77 281.22C236.234 280.123 236.691 279.022 237.148 277.921L237.149 277.919C237.795 276.361 238.442 274.802 239.11 273.25C239.588 272.131 240.091 271.024 240.594 269.916L240.594 269.916L240.597 269.909C240.745 269.583 240.893 269.257 241.04 268.93C241.68 267.51 242.31 266.08 242.93 264.64L243.308 263.771L243.308 263.771L243.308 263.77L243.308 263.77L243.308 263.77L243.309 263.77L243.309 263.77L243.309 263.77C244.723 260.518 246.14 257.261 247.59 254.02C248.52 251.92 249.46 249.83 250.51 247.79L250.514 247.782L250.514 247.782C250.697 247.431 250.886 247.069 251.095 246.724C251.141 246.648 251.178 246.567 251.208 246.484C251.263 246.33 251.332 246.184 251.41 246.05C251.755 245.455 252.196 244.913 252.632 244.377L252.747 244.236L252.84 244.12C253.715 243.021 254.62 241.952 255.526 240.88L255.526 240.88L255.527 240.88C255.791 240.567 256.056 240.254 256.32 239.94C258.956 236.831 261.655 233.778 264.311 230.774L264.34 230.741L265.26 229.7C265.269 229.688 265.278 229.677 265.287 229.667L265.305 229.645L265.314 229.635L265.33 229.616C265.344 229.599 265.358 229.582 265.374 229.566L265.38 229.56C266.23 228.592 267.074 227.619 267.918 226.647L267.918 226.647L267.918 226.647L267.918 226.647L267.918 226.646L267.918 226.646L267.918 226.646L267.919 226.646L267.919 226.646C269.507 224.815 271.094 222.986 272.72 221.19C273.665 220.149 274.616 219.113 275.566 218.076L275.57 218.072C277.203 216.291 278.835 214.511 280.44 212.71C282.52 210.34 284.55 207.92 286.53 205.47C287.127 204.73 287.72 203.988 288.314 203.246L288.314 203.246L288.315 203.245L288.315 203.244L288.316 203.243L288.317 203.243L288.317 203.242L288.319 203.239L288.325 203.233C289.796 201.394 291.265 199.557 292.78 197.75C294.96 195.16 297.21 192.64 299.5 190.15C300.271 189.306 301.047 188.468 301.823 187.63C303.182 186.163 304.54 184.695 305.87 183.2C307.477 181.34 309.01 179.417 310.542 177.495L310.543 177.494C311.194 176.677 311.844 175.861 312.5 175.05C314.82 172.18 317.24 169.4 319.73 166.68C322.13 164.05 324.59 161.48 327.08 158.93C329.26 156.69 331.42 154.44 333.51 152.11C335.67 149.64 337.75 147.11 339.79 144.54C341.526 142.357 343.33 140.232 345.133 138.108L345.134 138.108C345.71 137.429 346.286 136.75 346.86 136.07C347.184 135.685 347.508 135.299 347.832 134.914C349.627 132.778 351.422 130.641 353.26 128.54C354.516 127.105 355.799 125.693 357.083 124.279L357.083 124.279L357.085 124.277L357.086 124.276L357.088 124.274L357.089 124.272L357.09 124.271L357.092 124.269C358.024 123.244 358.956 122.217 359.88 121.18C361.43 119.41 363 117.66 364.61 115.94C366.31 114.13 367.98 112.3 369.63 110.44C371.988 107.761 374.219 104.971 376.45 102.182L376.45 102.182C377.351 101.055 378.251 99.9288 379.16 98.8099C379.58 98.2903 379.99 97.7632 380.399 97.2361L380.399 97.236L380.399 97.2358L380.4 97.2357L380.4 97.2355L380.4 97.2354L380.4 97.2352L380.4 97.2351L380.4 97.2349C380.81 96.7074 381.22 96.1799 381.64 95.6599C381.997 95.2172 382.363 94.7778 382.73 94.3379L382.73 94.3376L382.73 94.3373L382.731 94.337L382.731 94.3365C383.002 94.0117 383.273 93.6867 383.54 93.3599C383.875 92.9599 384.2 92.5524 384.525 92.1449C384.85 91.7374 385.175 91.3299 385.51 90.9299C386.099 90.2318 386.72 89.5524 387.339 88.8757L387.34 88.8745C387.625 88.5629 387.91 88.2519 388.19 87.9399C388.314 87.7978 388.438 87.6557 388.561 87.5137C388.915 87.1063 389.267 86.7004 389.63 86.2999C389.924 85.9733 390.227 85.6557 390.529 85.3388C390.529 85.3387 390.529 85.3387 390.529 85.3386L390.529 85.3386C390.782 85.0734 391.034 84.8087 391.28 84.5399C391.495 84.3069 391.704 84.0718 391.913 83.8374L391.914 83.8366C392.17 83.5483 392.426 83.2611 392.69 82.9799C392.851 82.8113 393.013 82.6428 393.175 82.474L393.176 82.4725L393.177 82.4721C393.657 81.9708 394.139 81.4681 394.61 80.9599C394.693 80.864 394.775 80.7681 394.858 80.6723C395.092 80.3988 395.326 80.1266 395.57 79.8599C395.817 79.5845 396.07 79.3156 396.325 79.0458L396.325 79.0457C396.514 78.8453 396.703 78.6444 396.89 78.4399C397.1 78.1999 397.3 77.9599 397.4 77.8199C397.43 77.7799 397.458 77.7374 397.485 77.6949C397.513 77.6524 397.54 77.6099 397.57 77.5699C397.676 77.4161 397.802 77.2833 397.942 77.1714C398.037 77.095 398.128 77.0123 398.2 76.9139C401.077 72.9939 405.395 69.5819 409.97 68.0999C414.42 66.6799 420.06 66.3999 424.28 68.6499C428.19 71.0299 431.95 74.1299 433.5 78.5799C435.43 82.4599 434.86 86.8499 433.83 90.8899C432.99 94.0499 431.98 97.3399 429.68 99.7599C429.375 100.09 429.058 100.498 428.725 100.926C428.011 101.842 427.224 102.853 426.329 103.402ZM424.859 98.025C424.76 98.1374 424.634 98.2228 424.502 98.2927C424.356 98.3695 424.216 98.461 424.084 98.5669C424.082 98.5689 424.078 98.57 424.075 98.57C424.072 98.57 424.069 98.5711 424.066 98.5731C424.018 98.6121 423.969 98.6513 423.92 98.7C423.783 98.8273 423.636 99.0025 423.499 99.1882C423.493 99.1956 423.482 99.2039 423.481 99.213C423.48 99.2193 423.478 99.2228 423.474 99.2277C423.461 99.2452 423.445 99.2626 423.43 99.28C423.413 99.3 423.395 99.32 423.38 99.34C422.863 99.9198 422.327 100.485 421.791 101.049L421.79 101.05C421.56 101.293 421.329 101.536 421.1 101.78C420.781 102.123 420.222 102.073 419.955 101.688C417.989 98.8451 415.424 96.4278 412.912 94.0598C412.724 93.883 412.537 93.7065 412.35 93.53C411.725 92.9924 411.113 92.4387 410.501 91.885L410.5 91.8845L410.5 91.8844C409.006 90.5328 407.511 89.1807 405.83 88.06C404.946 87.5577 404.069 87.0321 403.19 86.5054L403.19 86.5051C401.914 85.7402 400.634 84.973 399.324 84.2722C398.742 83.9607 398.597 83.1892 399.018 82.6805C399.045 82.6471 399.073 82.6136 399.1 82.5799C399.183 82.4777 399.265 82.3756 399.347 82.2736C399.642 81.9065 399.935 81.5421 400.24 81.1899L400.327 81.0949C400.508 80.8947 400.693 80.6911 400.9 80.5099C401.116 80.3121 401.275 80.0777 401.382 79.824C401.448 79.6667 401.531 79.5152 401.649 79.3923C401.863 79.1709 402.072 78.9427 402.281 78.7151C402.814 78.1352 403.343 77.5592 403.92 77.1099C407.34 74.0399 411.08 71.4699 415.84 71.3099C418.9 71.0299 421.89 71.8899 424.33 73.7699C426.34 75.1599 428.34 76.7299 429.39 78.9999C430.26 80.7399 430.95 82.6199 430.86 84.5899C430.54 87.1299 429.88 89.6599 428.83 91.9999C428.003 94.333 426.476 96.1995 424.859 98.025ZM256.856 246.358C256.895 246.284 256.944 246.214 257 246.152C257.737 245.347 258.463 244.532 259.19 243.715L259.19 243.715L259.191 243.715L259.64 243.21C262.471 240.024 265.24 236.787 268.005 233.554L268.59 232.87C269.805 231.45 271.033 230.042 272.258 228.637C272.586 228.261 272.913 227.885 273.24 227.51C274.58 225.98 275.88 224.42 277.17 222.85C277.666 222.25 278.161 221.65 278.655 221.049C280.915 218.306 283.174 215.564 285.52 212.89C287.61 210.54 289.76 208.24 291.92 205.96C294.05 203.71 296.14 201.43 298.19 199.11C300.252 196.764 302.226 194.343 304.2 191.921C306.046 189.657 307.892 187.393 309.81 185.19C311.161 183.684 312.551 182.219 313.942 180.752L313.942 180.752C315.065 179.569 316.187 178.385 317.29 177.18C319.82 174.42 322.25 171.56 324.62 168.66C326.625 166.213 328.568 163.712 330.51 161.211L330.515 161.204C330.77 160.876 331.025 160.548 331.28 160.22C333.28 157.64 335.33 155.12 337.47 152.66C338.38 151.63 339.3 150.61 340.24 149.6C340.81 148.989 341.384 148.382 341.959 147.775L341.959 147.774L341.96 147.773L341.96 147.773L341.961 147.772L341.962 147.772L341.962 147.771L341.963 147.77L341.963 147.77C342.919 146.76 343.874 145.75 344.81 144.72C345.944 143.473 347.059 142.218 348.175 140.962L348.179 140.958C348.735 140.331 349.292 139.705 349.85 139.08C350.192 138.698 350.535 138.316 350.878 137.935C353.478 135.037 356.08 132.138 358.58 129.16C359.192 128.433 359.798 127.7 360.404 126.968L360.404 126.967L360.405 126.966L360.408 126.964C361.217 125.985 362.027 125.006 362.85 124.04C363.201 123.627 363.554 123.217 363.907 122.807L363.907 122.807L363.907 122.806L363.907 122.806L363.907 122.806L363.907 122.806L363.907 122.806L363.908 122.806L363.908 122.806L363.908 122.806C364.69 121.896 365.472 120.987 366.23 120.05L366.532 119.678C368.802 116.881 371.076 114.079 373.45 111.36C375.11 109.49 376.8 107.66 378.52 105.85C378.818 105.534 379.115 105.217 379.413 104.901L379.446 104.866L379.46 104.851L379.462 104.849L379.462 104.849C380.759 103.47 382.058 102.088 383.37 100.72L383.693 100.386L383.694 100.385C384.18 99.8823 384.668 99.3782 385.148 98.8673C385.5 98.492 386.077 98.4378 386.508 98.7191C387.213 99.1795 387.954 99.5892 388.695 99.9991C389.572 100.484 390.45 100.97 391.27 101.54C392.478 102.447 393.662 103.388 394.82 104.363C395.247 104.722 395.289 105.362 394.937 105.795C394.56 106.259 394.193 106.737 393.828 107.214L393.828 107.215C393.435 107.728 393.043 108.239 392.64 108.73C392.313 109.132 391.984 109.535 391.655 109.937C391.027 110.706 390.397 111.476 389.78 112.25C387.85 114.68 385.92 117.1 383.9 119.45C382.76 120.76 381.59 122.06 380.42 123.34C378.87 125.03 377.29 126.7 375.7 128.36C374.12 130.01 372.56 131.68 371.01 133.36C368.05 136.55 365.12 139.77 362.27 143.06C360.88 144.67 359.51 146.29 358.15 147.91L354.1 152.68C352.916 154.079 351.756 155.499 350.596 156.918C349.169 158.664 347.743 160.41 346.27 162.12C342.549 166.375 338.613 170.43 334.678 174.483L334.678 174.483L334.678 174.483L334.678 174.483C334.045 175.135 333.412 175.787 332.78 176.44C330.46 178.83 328.19 181.29 326.08 183.87C325.348 184.759 324.626 185.658 323.905 186.558L323.904 186.558C322.695 188.066 321.485 189.575 320.22 191.04C318.844 192.599 317.438 194.135 316.035 195.668L316.034 195.669L315.41 196.35C315.086 196.705 314.761 197.058 314.436 197.412C313.376 198.563 312.318 199.714 311.3 200.9C310.391 201.942 309.459 202.971 308.526 204L308.526 204L308.525 204.001L308.523 204.002L308.523 204.003L308.523 204.003C307.846 204.75 307.169 205.497 306.5 206.25C304.89 208.07 303.29 209.91 301.75 211.79C300.776 212.981 299.815 214.182 298.854 215.383L298.853 215.384L298.853 215.385L298.852 215.386C296.981 217.724 295.111 220.061 293.15 222.32C291.11 224.671 288.848 227.11 286.582 229.554L286.15 230.02C285.61 230.605 285.066 231.189 284.521 231.774L284.52 231.775C283.975 232.36 283.43 232.945 282.89 233.53C281.996 234.487 281.141 235.476 280.284 236.468L279.98 236.82C278.946 238.004 277.863 239.225 276.758 240.471L276.751 240.478L276.748 240.482L276.747 240.482C275.429 241.968 274.081 243.488 272.75 245.02C272.076 245.795 271.388 246.6 270.689 247.419L270.687 247.422L270.682 247.427L270.681 247.428L270.68 247.43L270.678 247.433L270.675 247.436C270.061 248.154 269.439 248.883 268.81 249.61C268.227 250.28 267.587 251.02 266.927 251.793C266.894 251.832 266.858 251.868 266.819 251.901C265.113 253.363 263.228 254.568 260.92 254.74C259.19 254.98 257.96 254.31 257 253C256.19 251.895 254.907 250.077 256.856 246.358ZM399.981 109.105C399.571 108.694 398.897 108.725 398.488 109.136C398.273 109.352 398.058 109.559 397.853 109.757C397.615 109.986 397.392 110.201 397.2 110.4C396.697 110.927 396.197 111.455 395.696 111.983C394.951 112.768 394.207 113.553 393.46 114.33C392.883 114.93 392.302 115.526 391.721 116.123C390.791 117.078 389.861 118.034 388.95 119C387.59 120.43 386.28 121.9 384.98 123.39C383.51 125.1 382.05 126.82 380.63 128.56C379.997 129.33 379.372 130.105 378.747 130.878L378.747 130.879L378.746 130.879L378.746 130.88C377.919 131.904 377.093 132.927 376.25 133.94C373.48 137.25 370.71 140.56 367.87 143.82C365.832 146.16 363.732 148.444 361.629 150.73L361.626 150.733L361.625 150.734L361.624 150.735C360.809 151.622 359.993 152.509 359.18 153.4C358.825 153.788 358.47 154.176 358.115 154.565L358.113 154.567C357.051 155.73 355.989 156.894 354.91 158.04C354.447 158.53 353.981 159.018 353.516 159.506C352.584 160.481 351.653 161.457 350.74 162.45C349.73 163.55 348.73 164.66 347.75 165.78C345.66 168.2 343.63 170.66 341.62 173.14C340.646 174.349 339.682 175.563 338.718 176.776L338.715 176.78L338.712 176.784C337.748 177.997 336.784 179.211 335.81 180.42C333.77 182.93 331.66 185.39 329.44 187.74C328.704 188.523 327.96 189.296 327.217 190.07L327.217 190.07L327.217 190.07L327.217 190.07C325.728 191.619 324.241 193.166 322.82 194.78C322.701 194.919 322.582 195.058 322.463 195.197C322.321 195.362 322.18 195.527 322.038 195.693C320.806 197.129 319.573 198.568 318.36 200.02C318.065 200.37 317.772 200.723 317.48 201.075C317.187 201.428 316.895 201.78 316.6 202.13C316.061 202.77 315.501 203.396 314.937 204.025L314.937 204.026C314.831 204.144 314.726 204.262 314.62 204.38C314.07 205.017 313.521 205.654 312.972 206.292C311.875 207.568 310.777 208.843 309.67 210.11C308.04 211.97 306.37 213.8 304.67 215.6C303.743 216.575 302.804 217.542 301.865 218.51L301.865 218.51C301.061 219.338 300.257 220.166 299.46 221C297.81 222.72 296.22 224.49 294.65 226.28C292.07 229.25 289.56 232.28 287.05 235.309L287.05 235.31C285.634 237.014 284.166 238.667 282.725 240.29L282.724 240.29L282.724 240.291C282.068 241.029 281.418 241.762 280.78 242.49C278.12 245.56 275.43 248.6 272.7 251.61C272.37 251.974 272.04 252.339 271.71 252.705C270.452 254.452 269.2 256.467 268.51 258.3C267.079 261.766 271.478 267.445 276.585 264.276C276.672 264.222 276.751 264.152 276.816 264.073C278.115 262.502 279.471 260.974 280.824 259.448L281.15 259.08C282.843 257.167 284.554 255.272 286.265 253.376C287.121 252.428 287.977 251.48 288.83 250.53C288.88 250.47 288.92 250.42 288.97 250.37C290.19 249.01 291.41 247.65 292.62 246.28C294.827 243.771 297.114 241.336 299.403 238.9L299.403 238.9L299.403 238.899L299.403 238.899L299.403 238.899L299.403 238.899L299.404 238.899L299.404 238.899L299.404 238.899C301.575 236.588 303.747 234.276 305.85 231.9C307.94 229.5 309.99 227.06 312 224.59C314.02 222.11 316.05 219.63 318.14 217.21C320.38 214.62 322.7 212.1 325.04 209.6C325.428 209.187 325.815 208.774 326.203 208.362L326.213 208.352L326.222 208.342L326.232 208.331C328.106 206.338 329.977 204.348 331.8 202.31C333.618 200.228 335.382 198.097 337.143 195.97L337.144 195.969L337.149 195.963C337.653 195.354 338.156 194.747 338.66 194.14C341.04 191.29 343.51 188.52 346.06 185.81C348.274 183.457 350.541 181.157 352.808 178.857L352.808 178.856C353.132 178.528 353.456 178.199 353.78 177.87C356.43 175.17 359.02 172.43 361.54 169.6C363.32 167.553 365.049 165.466 366.776 163.38L366.776 163.38L366.776 163.38L366.776 163.379L366.776 163.379L366.776 163.379L366.777 163.379L366.777 163.379L366.777 163.379L366.777 163.379C368.281 161.563 369.784 159.747 371.32 157.96C372.237 156.891 373.152 155.819 374.066 154.747C376.35 152.068 378.635 149.388 380.97 146.76C382.54 145 384.13 143.26 385.74 141.54C387.44 139.71 389.15 137.88 390.87 136.07C391.807 135.086 392.754 134.116 393.701 133.146L393.703 133.145C394.545 132.282 395.387 131.421 396.22 130.55C398.01 128.69 399.77 126.8 401.48 124.88C403.342 122.749 405.149 120.57 406.935 118.379C407.222 118.027 407.235 117.524 406.963 117.16C404.836 114.32 402.495 111.628 399.981 109.105ZM411.561 112.799L411.562 112.797L411.565 112.794C412.128 112.126 412.69 111.459 413.25 110.79C414.562 109.216 415.879 107.662 417.218 106.121C417.491 105.807 417.546 105.355 417.331 104.999C416.141 103.026 414.48 101.378 412.838 99.7487L412.838 99.7486C412.466 99.3793 412.094 99.011 411.73 98.64C408.42 95.31 404.86 92.13 400.68 89.95C400.196 89.6635 399.712 89.3753 399.227 89.087C398.078 88.4031 396.927 87.7178 395.767 87.0483C395.632 86.9704 395.461 87.0012 395.36 87.1199C394.886 87.6767 394.43 88.2459 393.994 88.7906L393.993 88.7915L393.993 88.7917C393.473 89.4402 392.982 90.0537 392.52 90.5699L392.27 90.8499C391.802 91.3867 391.347 91.9366 390.891 92.4865L390.891 92.4876C390.549 92.9002 390.207 93.3128 389.86 93.7199C389.761 93.8368 389.661 93.9525 389.559 94.0671C389.097 94.5912 389.27 95.4214 389.898 95.7274C394.206 97.8249 397.844 101.062 401.29 104.38C402.727 105.733 404.042 107.202 405.355 108.667L405.355 108.668L405.356 108.668L405.356 108.668C405.77 109.13 406.183 109.592 406.6 110.05C406.894 110.391 407.193 110.731 407.494 111.073L407.494 111.073C408.152 111.82 408.815 112.574 409.435 113.357C409.842 113.872 410.628 113.905 411.051 113.403C411.221 113.201 411.391 113 411.561 112.799ZM264.516 258.611C264.532 258.541 264.496 258.47 264.432 258.437C264.393 258.416 264.346 258.413 264.304 258.43C260.265 260.05 255.159 259.175 253.43 254.75C253.22 254.27 252.319 254.155 252.108 254.633C251.415 256.207 250.706 257.771 249.995 259.338L249.84 259.68C249.315 260.84 248.79 262.005 248.265 263.17C247.74 264.335 247.215 265.5 246.69 266.66C246.127 267.902 245.578 269.149 245.028 270.395L245.028 270.395L245.028 270.395C244.308 272.027 243.589 273.658 242.84 275.28C242.594 275.815 242.345 276.349 242.095 276.882C241.949 277.194 242.274 277.538 242.604 277.442C246.594 275.89 249.119 278.664 248.996 282.042C248.983 282.386 249.375 282.634 249.66 282.44C251.763 281.014 253.904 279.645 256.043 278.278L256.052 278.272L256.058 278.268L256.06 278.267C256.6 277.922 257.141 277.576 257.68 277.23C259.55 276.03 261.42 274.82 263.28 273.61C264.248 272.981 265.214 272.345 266.179 271.709L266.185 271.705L266.191 271.701C267.156 271.065 268.122 270.429 269.09 269.8C269.628 269.449 269.499 268.587 268.919 268.312C265.352 266.623 263.577 262.677 264.516 258.611Z" fill="black"/>
<path d="M222.514 242.357C222.51 242.357 222.507 242.356 222.504 242.353C222.054 241.945 221.386 241.667 220.458 241.677C218.368 241.717 216.378 240.967 214.478 240.177C210.208 238.637 208.918 233.957 208.758 229.827C208.658 228.787 208.728 227.627 208.058 226.757C207.238 225.647 205.438 225.787 204.768 226.987C204.712 227.083 204.668 227.179 204.633 227.277C204.581 227.425 204.513 227.568 204.428 227.7C204.27 227.947 204.155 228.244 204.108 228.597C204.068 229.387 203.978 230.177 203.808 230.957C203.168 234.087 202.058 237.347 199.778 239.667C198.288 240.807 196.398 241.287 194.618 241.807C193.568 242.027 192.498 241.757 191.458 241.937C190.656 242.133 190.211 242.798 190.122 243.52C190.109 243.623 190.087 243.726 190.059 243.827C189.688 245.151 191.143 246.254 192.588 246.437C194.658 246.947 196.698 247.657 198.448 248.897C202.106 251.66 203.985 256.142 204.342 260.604C204.346 260.659 204.354 260.714 204.369 260.767C204.476 261.138 204.668 261.432 204.912 261.66C205.062 261.8 205.192 261.962 205.283 262.147C205.384 262.354 205.507 262.545 205.658 262.717C206.508 263.517 207.768 263.517 208.618 262.717C209.738 261.637 209.198 259.957 209.548 258.587C210.158 256.607 210.948 254.637 211.978 252.837C215.068 248.457 217.538 247.957 221.998 245.777C223.377 245.167 223.698 243.221 222.522 242.36C222.52 242.358 222.517 242.357 222.514 242.357ZM211.328 246.632C211.328 246.635 211.327 246.638 211.324 246.64C209.376 248.39 207.748 250.508 206.818 252.977C206.809 253.006 206.766 253.007 206.753 252.979C206.039 251.418 205.162 249.946 204.188 248.677C203.305 247.581 202.29 246.589 201.167 245.744C200.517 245.256 200.566 244.187 201.252 243.751C201.86 243.365 202.425 242.938 202.928 242.477C203.715 241.56 204.417 240.571 205.037 239.528C205.479 238.784 206.656 238.806 207.12 239.537C207.191 239.648 207.264 239.758 207.338 239.867C208.447 241.525 210.123 242.826 212.034 243.798C212.786 244.181 212.88 245.304 212.222 245.833C211.914 246.079 211.617 246.342 211.332 246.623C211.33 246.626 211.328 246.629 211.328 246.632Z" fill="black"/>
<path d="M202.847 190.596C202.849 190.6 202.855 190.599 202.854 190.594C202.778 189.863 202.327 189.184 201.417 188.946C199.697 188.636 197.927 188.646 196.207 188.326C194.537 187.926 192.957 187.246 191.337 186.686C186.657 184.996 182.427 182.216 179.257 178.356C175.827 174.346 172.847 169.776 172.037 164.476C171.596 162.761 171.769 160.969 171.418 159.26C171.404 159.191 171.382 159.123 171.35 159.06C170.416 157.208 167.926 157.992 167.617 159.809C167.6 159.913 167.573 160.015 167.54 160.114C167.474 160.309 167.437 160.53 167.437 160.776C167.427 161.386 167.557 161.996 167.507 162.606C166.847 167.096 165.887 171.716 163.247 175.496C161.437 178.846 159.017 181.836 155.807 183.946C152.767 186.096 149.377 187.696 145.757 188.566C144.747 188.856 143.667 188.896 142.587 188.906C141.137 188.786 139.787 188.846 138.867 189.256C138.497 189.366 138.127 189.496 137.777 189.696C136.347 190.746 137.017 193.116 138.767 193.306C138.687 193.286 138.617 193.276 138.537 193.256C138.515 193.25 138.511 193.26 138.533 193.267C138.906 193.382 139.336 193.367 139.694 193.216C139.709 193.21 139.725 193.206 139.741 193.206C140.743 193.206 141.745 193.206 142.747 193.176C143.167 193.206 143.567 193.256 143.917 193.386C147.907 194.346 151.737 195.986 155.227 198.146C160.507 202.096 164.787 208.836 166.317 215.236C167.207 217.686 167.336 221.142 167.336 223.546C167.336 224.046 167.603 224.696 167.836 225.046C168.836 226.546 172.5 227.134 172.477 224.246C172.167 219.916 172.757 215.536 174.217 211.446C175.157 208.646 176.877 206.236 178.757 203.996C180.157 202.356 181.427 200.546 183.187 199.276C185.967 197.566 188.797 195.896 191.827 194.666C193.867 194.066 196.037 194.006 198.137 193.646C199.497 193.376 201.057 193.556 202.267 192.826C202.957 192.316 203.157 191.376 202.847 190.596ZM175.757 200.746C173.293 203.628 171.472 206.971 170.322 210.558C170.129 211.159 169.185 211.159 168.997 210.556C167.357 206.606 165.797 202.446 162.817 199.286C160.307 196.204 157.066 193.929 153.529 192.209C152.729 191.82 152.723 190.618 153.514 190.213C156.93 188.465 160.053 186.11 162.767 183.446C164.557 181.636 165.667 179.346 166.857 177.136C167.515 176.106 168.065 175.023 168.516 173.9C168.878 172.999 170.316 172.898 170.768 173.757C172.913 177.828 175.923 181.518 179.147 184.676C181.826 186.821 184.823 188.473 187.993 189.738C188.655 190.002 188.659 191.028 188.037 191.376C183.337 193.666 178.857 196.436 175.757 200.746Z" fill="black"/>
<path d="M293.525 149.5C289.995 147.86 291.035 138.19 291.555 134.87C293.395 121.1 299.805 106.31 312.625 99.5696C316.665 84.4896 326.935 71.7796 340.185 63.6896C349.285 57.2896 358.865 51.5096 369.145 47.2096C371.735 46.0496 373.765 50.0196 371.245 51.4096C369.875 52.1396 368.455 52.7596 367.035 53.3896C356.295 58.1496 345.325 63.0496 336.395 70.8296C328.205 78.2996 321.215 87.3996 316.875 97.6496C329.505 92.6296 332.775 105.9 326.315 114.47C318.965 123.27 309.695 115.07 311.315 105.44C299.695 112.27 296.295 126.62 294.975 139.12C294.845 141.44 294.955 143.79 295.385 146.07C296.305 147.72 295.825 149.92 293.515 149.48L293.525 149.5ZM319.345 113.6C325.895 113.03 331.135 94.2696 314.925 103.42C314.025 106.99 314.785 113.26 319.345 113.6Z" fill="black"/>
<path d="M256.161 148.914C255.911 146.224 255.181 143.554 254.101 141.084C253.061 138.724 251.691 136.474 250.041 134.494C249.031 133.284 247.941 132.134 246.721 131.144C245.651 130.274 244.521 129.494 243.321 128.814C241.891 127.974 240.071 127.214 238.211 126.694C237.811 126.584 237.231 126.424 236.631 126.334C236.491 126.294 236.351 126.274 236.211 126.264C235.951 126.244 235.691 126.274 235.451 126.344C233.971 126.084 232.461 125.954 230.951 126.014C227.591 126.134 224.321 126.954 221.301 128.434C218.681 129.714 216.271 131.534 214.271 133.654C212.331 135.704 210.751 138.064 209.721 140.694C208.631 143.464 208.021 146.454 208.001 149.434C207.971 152.644 208.431 155.834 209.521 158.854C210.431 161.384 211.681 163.834 213.361 165.944C216.521 169.924 220.961 172.784 225.901 173.964C227.691 174.394 229.531 174.614 231.381 174.614C232.311 174.614 233.251 174.554 234.171 174.444C237.471 174.044 240.741 173.114 243.691 171.564C246.391 170.144 248.851 168.294 250.841 165.974C251.931 164.704 252.881 163.334 253.661 161.854C254.081 161.074 254.471 160.274 254.781 159.444C255.061 158.684 255.311 157.924 255.531 157.144C256.291 154.494 256.441 151.644 256.191 148.904L256.161 148.914ZM251.701 151.664C251.561 152.664 251.341 153.644 251.091 154.624C251.071 154.704 251.051 154.774 251.031 154.854C250.781 155.734 250.481 156.584 250.131 157.434C249.741 158.314 249.321 159.184 248.851 160.024C248.341 160.874 247.791 161.694 247.191 162.484C246.651 163.164 246.081 163.814 245.471 164.434C244.851 165.034 244.211 165.624 243.531 166.164C242.861 166.664 242.181 167.134 241.471 167.564C240.771 167.964 240.051 168.324 239.301 168.654C238.631 168.924 237.951 169.164 237.251 169.364C236.531 169.554 235.801 169.694 235.061 169.804C234.251 169.904 233.441 169.964 232.621 169.974C231.701 169.974 230.791 169.904 229.881 169.794C228.951 169.654 228.031 169.474 227.121 169.234C226.171 168.964 225.241 168.644 224.321 168.264C223.471 167.894 222.641 167.474 221.831 167.004C221.031 166.524 220.261 166.004 219.521 165.444C218.771 164.854 218.061 164.224 217.381 163.554C216.711 162.864 216.071 162.134 215.471 161.374C215.001 160.754 214.571 160.104 214.171 159.434C213.781 158.754 213.431 158.054 213.121 157.334C212.831 156.614 212.571 155.874 212.361 155.124C212.161 154.344 211.991 153.564 211.871 152.774C211.771 151.974 211.711 151.174 211.711 150.364C211.721 149.564 211.771 148.754 211.871 147.964C211.991 147.104 212.171 146.244 212.391 145.404C212.631 144.554 212.931 143.724 213.271 142.904C213.661 142.014 214.101 141.154 214.591 140.304C215.131 139.414 215.711 138.554 216.341 137.724C216.871 137.064 217.421 136.434 218.011 135.824C218.561 135.294 219.141 134.794 219.741 134.324C220.411 133.824 221.111 133.364 221.831 132.944C222.591 132.524 223.361 132.134 224.161 131.784C225.001 131.444 225.841 131.154 226.711 130.904C227.631 130.664 228.551 130.484 229.491 130.344C230.471 130.224 231.451 130.164 232.431 130.154C233.241 130.164 234.041 130.214 234.841 130.294C234.891 130.324 234.941 130.354 234.991 130.384C235.251 130.534 235.531 130.624 235.831 130.654C236.061 130.704 236.291 130.754 236.521 130.814C236.941 130.924 237.371 131.024 237.801 131.134C238.601 131.364 239.371 131.654 240.141 131.974C240.961 132.334 241.761 132.724 242.541 133.164C242.621 133.214 242.701 133.264 242.791 133.314C243.481 133.744 244.201 134.234 244.881 134.754C245.521 135.264 246.141 135.794 246.731 136.374C247.261 136.914 247.751 137.484 248.221 138.074C248.651 138.644 249.051 139.244 249.411 139.854C249.801 140.534 250.141 141.234 250.461 141.954C250.741 142.644 250.991 143.344 251.201 144.064C251.401 144.824 251.551 145.584 251.671 146.364C251.791 147.324 251.861 148.274 251.871 149.234C251.871 150.044 251.821 150.864 251.711 151.664H251.701Z" fill="#8230FF"/>
<path d="M241.751 139.175C241.311 139.285 240.851 139.585 240.631 140.005C240.611 140.055 240.581 140.095 240.561 140.145C240.331 140.435 240.081 140.715 239.851 141.005C239.291 141.725 238.691 142.415 238.121 143.135C237.021 144.505 235.931 145.875 234.871 147.275C233.811 148.665 232.761 150.065 231.671 151.435C231.161 152.085 230.641 152.745 230.131 153.405C229.791 153.855 229.431 154.295 229.091 154.755C229.011 154.875 228.921 154.985 228.831 155.105C228.791 155.045 228.741 154.985 228.701 154.925C228.301 154.365 227.931 153.785 227.541 153.215C227.051 152.495 226.511 151.805 225.981 151.115C225.581 150.595 225.171 150.065 224.771 149.545C224.481 149.165 224.181 148.805 223.831 148.485C223.631 148.305 223.431 148.145 223.171 148.035C223.051 147.985 222.931 147.945 222.801 147.915C222.161 147.615 221.361 147.785 220.861 148.265C220.451 148.655 220.291 149.175 220.331 149.715C220.311 150.055 220.361 150.405 220.501 150.705C220.591 150.915 220.701 151.115 220.821 151.305C221.261 151.985 221.771 152.625 222.251 153.265C222.921 154.155 223.591 155.045 224.301 155.895C224.631 156.285 224.961 156.665 225.281 157.045C225.531 157.345 225.771 157.645 226.011 157.955C226.201 158.205 226.401 158.445 226.601 158.685C226.761 158.875 226.901 159.085 227.051 159.285C227.091 159.345 227.131 159.405 227.171 159.465C227.431 159.835 227.811 160.095 228.241 160.225C228.421 160.285 228.611 160.305 228.791 160.305C229.221 160.305 229.651 160.165 230.001 159.905C230.191 159.765 230.341 159.595 230.471 159.415C230.471 159.415 230.481 159.395 230.491 159.385C230.661 159.195 230.831 158.965 231.011 158.745C232.751 156.525 234.451 154.265 236.171 152.015C237.271 150.585 238.401 149.175 239.491 147.735C240.471 146.425 241.461 145.125 242.391 143.775C242.581 143.505 242.771 143.245 242.961 142.985L243.071 142.835C243.191 142.675 243.301 142.515 243.421 142.355C243.441 142.335 243.461 142.315 243.481 142.305C244.281 141.555 244.211 140.215 243.361 139.535C242.911 139.175 242.311 139.045 241.751 139.185V139.175Z" fill="#8230FF"/>
<path fill-rule="evenodd" clip-rule="evenodd" d="M183.488 124.92C183.489 124.925 183.485 124.93 183.48 124.93C183.478 124.93 183.477 124.931 183.475 124.932C183.473 124.934 183.472 124.937 183.472 124.94C183.619 125.667 183.498 126.413 182.99 126.98C182.51 127.51 181.79 127.71 181.1 127.82C180.856 127.858 180.617 127.914 180.38 127.969L180.293 127.989C180.249 128 180.205 128.01 180.16 128.02C179.687 128.127 179.213 128.224 178.74 128.322C178.503 128.371 178.267 128.42 178.03 128.47C176.989 128.685 175.952 128.879 174.913 129.074L174.913 129.074L174.912 129.074C174.305 129.188 173.698 129.302 173.09 129.42C170.911 129.833 168.737 130.264 166.561 130.695L166.556 130.696C165.418 130.921 164.28 131.147 163.14 131.37C159.787 132.029 156.399 132.529 153.017 133.028L153.016 133.028L153.016 133.028L152.39 133.12C151.795 133.209 151.197 133.295 150.6 133.381L150.599 133.381L150.598 133.381L150.598 133.381L150.598 133.381C149.721 133.507 148.844 133.633 147.97 133.77L147.97 133.77C146.21 134.04 144.45 134.31 142.68 134.51C142.371 134.552 142.063 134.595 141.755 134.637L141.755 134.637L141.755 134.638C141.177 134.718 140.601 134.798 140.02 134.87C139.925 134.87 139.83 134.887 139.735 134.904L139.735 134.904L139.699 134.91C139.679 134.914 139.66 134.917 139.64 134.92C139.25 134.98 138.85 135.03 138.52 135.07C138.445 135.08 138.368 135.092 138.29 135.105C138.213 135.118 138.135 135.13 138.06 135.14C137.96 135.16 137.85 135.16 137.75 135.16H137.6C137.27 135.17 136.93 135.09 136.61 134.94C135.91 134.59 135.54 133.91 135.3 133.2C135.087 132.559 134.947 131.885 134.81 131.222C134.78 131.077 134.751 130.933 134.72 130.79C134.38 129.2 134.06 127.61 133.74 126.02L133.74 126.02L133.74 126.02L133.74 126.02C133.07 122.66 132.43 119.29 131.8 115.92C131.19 112.67 130.58 109.42 129.92 106.18C129.39 103.6 128.94 101.01 128.5 98.41C128.23 96.8301 127.97 95.2503 127.71 93.6704L127.71 93.67C127.54 92.64 127.37 91.62 127.19 90.59C127.177 90.5103 127.163 90.4303 127.149 90.3502C127.006 89.5261 126.86 88.6882 127.37 87.95C127.68 87.5 128.13 87.23 128.64 87.08C128.715 87.055 128.79 87.0325 128.865 87.01C128.94 86.9875 129.015 86.965 129.09 86.94C129.99 86.66 130.88 86.37 131.76 86.03C133.27 85.39 134.76 84.71 136.25 84.03L136.25 84.03L136.42 83.9514L136.42 83.9514C137.034 83.6667 137.65 83.3806 138.3 83.17C138.911 82.9664 139.552 82.8364 140.186 82.708L140.186 82.708C140.362 82.6724 140.537 82.6369 140.71 82.6C141.216 82.4927 141.722 82.3824 142.229 82.2721L142.229 82.2721L142.229 82.272C143.044 82.0944 143.86 81.9165 144.68 81.75C145.83 81.52 146.98 81.32 148.13 81.12C150.92 80.64 153.72 80.18 156.53 79.81C157.084 79.736 157.638 79.6624 158.192 79.5888C160.408 79.2944 162.624 79 164.84 78.68C165.625 78.5637 166.406 78.434 167.186 78.3044L167.187 78.3044L167.187 78.3044C167.748 78.2111 168.309 78.1179 168.87 78.03C169.304 77.9616 169.735 77.8807 170.167 77.7996C170.682 77.703 171.198 77.6061 171.72 77.53L171.786 77.5204C172.105 77.4735 172.432 77.4255 172.75 77.36C173.39 77.23 174.03 77.19 174.63 77.51C175.34 77.88 175.78 78.52 175.94 79.29L175.952 79.3466C175.985 79.515 176.032 79.6805 176.083 79.8444C176.132 80.0022 176.165 80.1303 176.176 80.1739L176.184 80.2063C176.457 81.286 176.671 82.3755 176.885 83.4645C176.976 83.9233 177.066 84.3821 177.16 84.84C177.46 86.3 177.75 87.76 178.02 89.23C178.61 92.42 179.06 95.65 179.47 98.87C179.625 100.087 179.775 101.306 179.925 102.525L179.925 102.527L179.925 102.53C180.455 106.835 180.986 111.143 181.71 115.42C182.04 117.378 182.411 119.32 182.783 121.265L182.783 121.267L182.783 121.268C182.93 122.035 183.076 122.802 183.22 123.57C183.275 123.887 183.34 124.198 183.404 124.509C183.432 124.646 183.461 124.783 183.488 124.92ZM172.265 124.962C172.273 124.961 172.28 124.967 172.28 124.975C172.28 124.983 172.287 124.989 172.295 124.988C172.786 124.912 173.277 124.835 173.768 124.758L173.768 124.758L173.769 124.758C174.597 124.629 175.425 124.499 176.254 124.376C177.925 124.127 179.109 122.58 178.846 120.911C178.324 117.596 177.746 114.294 177.08 111.01C176.5 108.16 175.86 105.32 175.22 102.48C174.5 99.28 173.82 96.05 173.23 92.82C172.83 90.6 172.49 88.38 172.18 86.15C172.122 85.7336 172.059 85.3169 171.995 84.9C171.762 83.3764 170.455 82.2698 168.946 82.5822L168.902 82.5914L168.901 82.5914L168.901 82.5914C168.46 82.6827 168.024 82.7731 167.6 82.84C165.392 83.1762 163.19 83.6058 160.989 84.0352L160.989 84.0352L160.989 84.0352L160.988 84.0353C160.309 84.1678 159.629 84.3003 158.95 84.43C153.75 85.43 148.52 86.3 143.25 86.89C142.4 86.98 141.56 87.07 140.71 87.17C140.2 87.23 139.69 87.3 139.19 87.4C138.68 87.56 138.17 87.75 137.66 87.94C137.291 88.0784 136.919 88.2135 136.545 88.3492L136.545 88.3492C136.27 88.4487 135.995 88.5485 135.72 88.65C135.057 88.894 134.391 89.1276 133.724 89.3561C132.241 89.8639 131.355 91.421 131.702 92.9498C131.728 93.0633 131.754 93.1767 131.78 93.29C131.915 93.885 132.053 94.4825 132.19 95.08C132.328 95.6775 132.465 96.275 132.6 96.87C133.17 99.37 133.73 101.88 134.23 104.41C134.86 107.65 135.5 110.89 136.17 114.13C136.313 114.825 136.455 115.521 136.598 116.217L136.599 116.218L136.599 116.218C137.138 118.845 137.678 121.478 138.2 124.11C138.286 124.559 138.373 125.008 138.46 125.457L138.46 125.457C138.61 126.228 138.759 126.999 138.905 127.77C139.221 129.443 140.846 130.545 142.511 130.19C144.1 129.851 145.688 129.519 147.28 129.22C148.565 128.975 149.85 128.72 151.135 128.465C152.42 128.21 153.705 127.955 154.99 127.71L154.991 127.71C156.531 127.42 158.071 127.13 159.62 126.86C160.961 126.629 162.301 126.435 163.648 126.24C163.879 126.207 164.109 126.174 164.34 126.14C166.985 125.761 169.63 125.361 172.265 124.962ZM142.74 101.79H142.4L142.41 101.78C142.25 101.78 142.1 101.77 141.94 101.74C141.63 101.68 141.37 101.57 141.1 101.42C140.06 100.83 139.91 99.3299 140.64 98.4599C140.95 98.0899 141.36 97.8699 141.8 97.6999C142.19 97.5536 142.593 97.4404 142.994 97.3279C143.086 97.302 143.178 97.2761 143.27 97.2499C144.235 96.9768 145.228 96.7911 146.22 96.6057C146.39 96.5739 146.56 96.5421 146.73 96.5099C149.43 95.9999 152.13 95.5099 154.83 95.0299C158.06 94.4599 161.29 93.8899 164.52 93.3399C164.575 93.3299 164.627 93.3224 164.68 93.3149C164.732 93.3074 164.785 93.2999 164.84 93.2899C165.33 93.2099 165.88 93.3799 166.29 93.6399C166.79 93.9499 167.15 94.4599 167.29 95.0399C167.43 95.6399 167.32 96.2799 166.99 96.7899C166.69 97.2699 166.16 97.6899 165.59 97.7899C165.55 97.7999 165.51 97.8099 165.47 97.8099H165.45C164.704 97.9394 163.963 98.0863 163.224 98.2329L163.223 98.233L163.223 98.233L163.223 98.2331C162.992 98.2789 162.761 98.3247 162.53 98.3699C160.33 98.7999 158.12 99.2199 155.91 99.6399C153.21 100.15 150.51 100.65 147.81 101.12C147.524 101.169 147.239 101.222 146.953 101.274L146.953 101.274L146.953 101.274C146.028 101.444 145.102 101.614 144.17 101.69C144.069 101.698 143.969 101.707 143.869 101.716L143.868 101.716L143.868 101.716C143.492 101.749 143.119 101.782 142.74 101.79ZM168.49 103.24C168.02 102.86 167.38 102.67 166.78 102.76L166.34 102.86C166.156 102.877 165.971 102.903 165.779 102.929L165.7 102.94C165.669 102.94 165.639 102.947 165.605 102.956C165.585 102.961 165.563 102.966 165.54 102.97C165.25 103.02 164.963 103.067 164.675 103.115C164.388 103.162 164.1 103.21 163.81 103.26L163.72 103.28H163.68L163.678 103.28C163.178 103.37 162.679 103.46 162.17 103.55C162.2 103.545 162.22 103.54 162.235 103.536C162.25 103.532 162.26 103.53 162.27 103.53C162.34 103.52 162.4 103.51 162.47 103.49C162.398 103.501 162.326 103.515 162.256 103.529C162.199 103.54 162.144 103.551 162.09 103.56C161.01 103.75 159.92 103.95 158.84 104.15C158.79 104.15 158.44 104.22 158.09 104.29C155.14 104.83 152.19 105.38 149.27 106.03C148.68 106.16 148.095 106.297 147.51 106.435L147.51 106.435L147.51 106.435C146.925 106.572 146.34 106.71 145.75 106.84C145.701 106.851 145.651 106.862 145.602 106.872C145.556 106.882 145.511 106.892 145.465 106.902C144.788 107.051 144.108 107.199 143.45 107.41C142.83 107.61 142.28 107.86 141.93 108.44C141.44 109.22 141.6 110.37 142.36 110.93C142.75 111.22 143.15 111.36 143.63 111.39H143.82C144.14 111.39 144.46 111.35 144.77 111.31C145.39 111.237 146.01 111.137 146.63 111.037C146.94 110.987 147.25 110.937 147.56 110.89C149.14 110.66 150.71 110.41 152.28 110.13C152.564 110.079 152.848 110.028 153.133 109.977L153.138 109.976C154.812 109.677 156.51 109.373 158.2 109.04C158.981 108.888 159.762 108.731 160.544 108.574L160.544 108.573C161.404 108.401 162.266 108.227 163.13 108.06C163.39 108.01 163.65 107.957 163.91 107.905C164.17 107.852 164.43 107.8 164.69 107.75C164.842 107.718 164.994 107.689 165.146 107.66L165.146 107.66L165.146 107.66C165.374 107.617 165.602 107.574 165.83 107.52C165.992 107.48 166.156 107.445 166.32 107.41L166.32 107.41L166.32 107.41C166.604 107.349 166.888 107.289 167.16 107.2C167.33 107.19 167.49 107.16 167.65 107.11C168.19 106.96 168.7 106.6 168.98 106.11C169.55 105.18 169.34 103.93 168.48 103.23L168.49 103.24ZM158.791 113.925C159.432 113.798 160.08 113.671 160.7 113.96V113.95C161.93 114.46 162.38 116.12 161.54 117.17C160.99 117.9 160.17 118.06 159.41 118.12C159.185 118.187 158.967 118.273 158.748 118.359C158.382 118.501 158.018 118.644 157.63 118.7C153.69 119.76 149.6 120.54 145.53 120.7C143.32 120.38 143.3 117.26 145.47 116.82C147.719 116.218 150.007 115.767 152.292 115.316C154.337 114.913 156.379 114.51 158.39 114C158.523 113.978 158.657 113.951 158.791 113.925Z" fill="#8230FF"/>
<path d="M298.743 33.7678C298.735 33.7727 298.725 33.7674 298.725 33.7586C298.723 33.6954 298.714 33.6314 298.705 33.5593C298.585 32.9393 298.185 32.4093 297.595 32.1793C297.358 32.0875 297.115 32.0542 296.875 32.066C296.73 32.0732 296.583 32.0655 296.44 32.0387C296.042 31.9643 295.624 31.9916 295.235 32.1693C294.665 32.4293 294.065 32.6693 293.475 32.8793C293.335 32.9293 293.125 33.0093 292.925 33.0893C292.575 33.2293 292.215 33.3493 291.865 33.5093C290.995 33.9093 290.095 34.2793 289.205 34.6393C287.935 35.1593 286.665 35.6893 285.395 36.2293C282.485 37.4593 279.595 38.7193 276.735 40.0493C273.985 41.3293 271.255 42.6593 268.525 43.9793C265.385 45.4993 262.205 46.9493 258.995 48.3293C255.825 49.6893 252.615 50.9693 249.425 52.2893C246.095 53.6693 242.825 55.1693 239.525 56.5993C236.095 58.0893 232.655 59.5493 229.245 61.0993C227.665 61.8193 226.085 62.5493 224.525 63.3093C223.695 63.7093 222.875 64.1193 222.055 64.5293C221.715 64.6993 221.375 64.8693 221.035 65.0393C220.725 65.1993 220.435 65.3693 220.185 65.6093C220.123 65.6721 220.065 65.7403 220.013 65.8111C219.922 65.9364 219.815 66.0508 219.695 66.1487C219.587 66.2361 219.488 66.3345 219.405 66.4493C219.055 66.9093 218.885 67.5893 219.085 68.1493C219.255 68.6193 219.505 69.0193 219.925 69.2993C220.285 69.5493 220.665 69.7693 221.035 69.9993C221.905 70.5293 222.785 71.0093 223.695 71.4693C225.555 72.4093 227.415 73.3593 229.285 74.2893C233.495 76.3793 237.755 78.3893 241.975 80.4693C242.215 80.5893 242.465 80.7126 242.719 80.8373C243.07 81.0095 243.288 81.3697 243.284 81.7605C243.277 82.3667 243.28 82.973 243.295 83.5793C243.335 86.0193 243.415 88.4693 243.495 90.9093C243.575 93.1093 243.665 95.3093 243.745 97.5093C243.765 98.1193 243.765 98.7393 243.905 99.3293C244.035 99.8833 244.394 100.335 244.85 100.629C244.925 100.678 244.996 100.732 245.064 100.792C245.433 101.116 245.911 101.309 246.415 101.309C246.525 101.309 246.635 101.309 246.735 101.279C247.845 101.089 248.625 100.089 249.255 99.2393C249.465 98.9593 249.655 98.6693 249.845 98.3693C249.975 98.1793 250.105 97.9893 250.235 97.7893L250.295 97.7093C250.415 97.5293 250.555 97.3693 250.685 97.1993C251.415 96.2693 252.105 95.3093 252.815 94.3593C253.795 93.0493 254.695 91.6993 255.635 90.3593C256.015 89.8193 256.415 89.2993 256.795 88.7593C256.858 88.6694 256.919 88.5796 256.979 88.4898C257.256 88.0778 257.788 87.9261 258.236 88.1378C258.717 88.3647 259.2 88.5932 259.678 88.8258C259.683 88.8281 259.688 88.8293 259.693 88.8293C259.701 88.8293 259.709 88.832 259.715 88.8366C259.763 88.8718 259.818 88.8912 259.865 88.9193C261.985 89.9693 264.205 91.1293 266.425 92.2993C267.675 92.9593 268.925 93.6393 270.175 94.2993C270.62 94.5403 271.074 94.7728 271.528 94.9887C271.599 95.0225 271.666 95.0649 271.73 95.1109C271.955 95.2732 272.205 95.3904 272.485 95.4693C272.635 95.5093 272.805 95.5293 272.975 95.5393C273.135 95.5693 273.295 95.5893 273.465 95.5893C274.335 95.5893 275.185 95.1193 275.615 94.3293C275.755 94.0693 275.855 93.7893 275.965 93.5093C276.385 92.3793 276.825 91.2593 277.235 90.1193C278.045 87.8493 278.815 85.5693 279.595 83.2993C281.305 78.3493 283.265 73.4693 285.335 68.6593C286.715 65.4393 288.125 62.2293 289.395 58.9593C290.685 55.6493 291.985 52.3393 293.335 49.0493C294.535 46.1093 295.695 43.1593 296.825 40.1993C297.375 38.7693 297.915 37.3393 298.405 35.8893C298.595 35.3293 298.855 34.6993 298.805 34.0893C298.805 33.9842 298.787 33.8792 298.759 33.7741C298.757 33.7668 298.749 33.7636 298.743 33.7678ZM231.315 70.1593C230.172 69.6035 229.026 69.0515 227.877 68.5035C227.089 68.1274 227.124 66.9897 227.932 66.6587C230.311 65.6844 232.672 64.6776 235.015 63.6293C238.325 62.1593 241.615 60.6393 244.935 59.1893C246.655 58.4393 248.375 57.6893 250.075 56.9093C251.635 56.1893 253.185 55.4493 254.735 54.7193C257.835 53.2493 260.935 51.7993 264.085 50.4293C269.945 47.8893 275.945 45.6893 281.795 43.1393C282.159 42.9802 282.523 42.8201 282.888 42.6592C283.314 42.4705 283.665 43.0206 283.315 43.3293C281.705 44.7493 280.105 46.1893 278.505 47.6193C275.245 50.5093 271.905 53.3793 268.675 56.3793C265.895 58.9593 263.125 61.5593 260.285 64.0793C258.215 65.9093 256.115 67.7193 253.965 69.4693C251.895 71.1593 249.785 72.7993 247.795 74.5693C247.695 74.6493 247.375 74.9393 247.055 75.2193L246.875 75.3793C246.515 75.6859 246.031 76.1102 245.505 76.5573C245.208 76.81 244.79 76.8618 244.439 76.69C244.19 76.5676 243.939 76.4434 243.685 76.3193C239.725 74.3693 235.535 72.2293 231.315 70.1593ZM253.085 86.0493C252.695 86.5793 252.325 87.1293 251.935 87.6593C250.885 89.0793 249.805 90.4693 248.805 91.9193C248.632 92.17 248.248 92.054 248.242 91.7491C248.234 91.3983 248.226 91.0474 248.215 90.6993C248.161 88.8156 248.107 86.9319 248.03 85.0528C247.999 84.2989 248.78 83.7751 249.466 84.0899C250.156 84.4069 250.848 84.7214 251.535 85.0393C252.029 85.2605 252.515 85.4889 253.006 85.7123C253.139 85.7726 253.18 85.9386 253.085 86.0493ZM287.175 52.5393C286.095 55.2693 284.965 57.9893 283.935 60.7393C282.725 63.9693 281.605 67.2293 280.385 70.4593C279.355 73.1993 278.275 75.9193 277.135 78.6093C275.885 81.5693 274.515 84.4793 273.225 87.4293C272.945 88.0702 272.673 88.7111 272.405 89.352C272.186 89.8747 271.578 90.1125 271.061 89.88C270.112 89.4531 269.161 89.0346 268.215 88.5993C265.945 87.5493 263.665 86.5093 261.415 85.3993C260.215 84.8093 259.015 84.1993 257.825 83.5793C257.795 83.5593 257.785 83.5293 257.755 83.5093C257.563 83.3669 257.363 83.2666 257.156 83.2025C257.077 83.1778 256.998 83.1496 256.924 83.1109C256.221 82.7413 255.518 82.3798 254.815 82.0093C253.435 81.2793 252.065 80.5293 250.675 79.8093C250.527 79.7332 250.38 79.659 250.232 79.585C249.935 79.4367 249.881 79.0431 250.127 78.8221C250.136 78.8148 250.144 78.8075 250.152 78.8003C250.167 78.7863 250.185 78.7745 250.2 78.7598C250.215 78.7444 250.233 78.7318 250.25 78.7171C250.366 78.6108 250.516 78.48 250.665 78.3493C252.615 76.6293 254.475 74.8093 256.365 73.0093C258.275 71.1993 260.215 69.4293 262.175 67.6793C264.505 65.6193 266.875 63.6193 269.255 61.6393C270.645 60.4793 272.045 59.3093 273.425 58.1393C274.788 56.9857 276.121 55.7925 277.453 54.6089C277.468 54.5958 277.482 54.5823 277.496 54.5684C277.522 54.5425 277.565 54.4995 277.585 54.4793C281.035 51.4293 284.615 48.3393 288.155 45.1993C288.6 44.8038 289.041 44.4063 289.481 44.0086C289.881 43.6464 290.481 44.066 290.285 44.5693C289.235 47.2293 288.215 49.8993 287.165 52.5593L287.175 52.5393Z" fill="#8230FF"/>
</svg>
